<svg width="20" height="21" viewBox="0 0 20 21" fill="none" xmlns="http://www.w3.org/2000/svg">
<path d="M9.16797 2.16699H7.5013C3.33464 2.16699 1.66797 3.83366 1.66797 8.00033V13.0003C1.66797 17.167 3.33464 18.8337 7.5013 18.8337H12.5013C16.668 18.8337 18.3346 17.167 18.3346 13.0003V11.3337" stroke="#3045FB" stroke-width="1.5" stroke-linecap="round" stroke-linejoin="round"/>
<path d="M13.3675 3.01639L6.80088 9.58306C6.55088 9.83306 6.30088 10.3247 6.25088 10.6831L5.89254 13.1914C5.75921 14.0997 6.40088 14.7331 7.30921 14.6081L9.81754 14.2497C10.1675 14.1997 10.6592 13.9497 10.9175 13.6997L17.4842 7.13306C18.6175 5.99972 19.1509 4.68306 17.4842 3.01639C15.8175 1.34972 14.5009 1.88306 13.3675 3.01639Z" stroke="#3045FB" stroke-width="1.5" stroke-miterlimit="10" stroke-linecap="round" stroke-linejoin="round"/>
<path d="M12.4258 3.95801C12.9841 5.94967 14.5424 7.50801 16.5424 8.07467" stroke="#3045FB" stroke-width="1.5" stroke-miterlimit="10" stroke-linecap="round" stroke-linejoin="round"/>
</svg>
