<svg width="49" height="48" viewBox="0 0 49 48" fill="none" xmlns="http://www.w3.org/2000/svg">
<rect x="0.75" y="0.25" width="47.5" height="47.5" rx="23.75" stroke="#E7E8E6" stroke-width="0.5"/>
<rect x="4.5" y="4" width="40" height="40" rx="20" fill="#3045FB"/>
<path d="M17.625 32.75C17.4592 32.75 17.3003 32.6842 17.1831 32.5669C17.0658 32.4497 17 32.2908 17 32.125C17 31.9592 17.0658 31.8003 17.1831 31.6831C17.3003 31.5658 17.4592 31.5 17.625 31.5H18.875V30.25C18.8747 29.1887 19.1747 28.149 19.7403 27.251C20.3059 26.3529 21.114 25.6332 22.0713 25.175C22.4338 25.0012 22.625 24.7037 22.625 24.4375V23.5625C22.625 23.2962 22.4325 22.9987 22.0713 22.825C21.114 22.3668 20.3059 21.6471 19.7403 20.749C19.1747 19.851 18.8747 18.8113 18.875 17.75V16.5H17.625C17.4592 16.5 17.3003 16.4342 17.1831 16.3169C17.0658 16.1997 17 16.0408 17 15.875C17 15.7092 17.0658 15.5503 17.1831 15.4331C17.3003 15.3158 17.4592 15.25 17.625 15.25H31.375C31.5408 15.25 31.6997 15.3158 31.8169 15.4331C31.9342 15.5503 32 15.7092 32 15.875C32 16.0408 31.9342 16.1997 31.8169 16.3169C31.6997 16.4342 31.5408 16.5 31.375 16.5H30.125V17.75C30.1253 18.8113 29.8253 19.851 29.2597 20.749C28.6941 21.6471 27.886 22.3668 26.9288 22.825C26.5662 22.9987 26.375 23.2962 26.375 23.5625V24.4375C26.375 24.7037 26.5675 25.0012 26.9288 25.175C27.886 25.6332 28.6941 26.3529 29.2597 27.251C29.8253 28.149 30.1253 29.1887 30.125 30.25V31.5H31.375C31.5408 31.5 31.6997 31.5658 31.8169 31.6831C31.9342 31.8003 32 31.9592 32 32.125C32 32.2908 31.9342 32.4497 31.8169 32.5669C31.6997 32.6842 31.5408 32.75 31.375 32.75H17.625ZM20.125 16.5V17.75C20.125 18.4212 20.275 19.0562 20.5462 19.625H28.4537C28.7238 19.0562 28.875 18.4212 28.875 17.75V16.5H20.125ZM23.875 24.4375C23.875 25.3137 23.2775 25.9825 22.6112 26.3025C21.8666 26.6589 21.238 27.2187 20.7981 27.9172C20.3581 28.6157 20.1248 29.4245 20.125 30.25C20.125 30.25 21.2075 28.6262 23.875 28.4V24.4375ZM25.125 24.4375V28.4C27.7925 28.6262 28.875 30.25 28.875 30.25C28.8752 29.4245 28.6419 28.6157 28.2019 27.9172C27.762 27.2187 27.1334 26.6589 26.3887 26.3025C25.7225 25.9825 25.125 25.3137 25.125 24.4375Z" fill="white"/>
</svg>
