<svg width="16" height="16" viewBox="0 0 16 16" fill="none" xmlns="http://www.w3.org/2000/svg">
<path d="M8.10573 7.24634C8.03906 7.23967 7.95906 7.23967 7.88573 7.24634C6.29906 7.19301 5.03906 5.89301 5.03906 4.29301C5.03906 2.65967 6.35906 1.33301 7.99906 1.33301C9.6324 1.33301 10.9591 2.65967 10.9591 4.29301C10.9524 5.89301 9.6924 7.19301 8.10573 7.24634Z" stroke="#6A6C60" stroke-linecap="round" stroke-linejoin="round"/>
<path d="M4.7725 9.70699C3.15917 10.787 3.15917 12.547 4.7725 13.6203C6.60583 14.847 9.6125 14.847 11.4458 13.6203C13.0592 12.5403 13.0592 10.7803 11.4458 9.70699C9.61917 8.48699 6.6125 8.48699 4.7725 9.70699Z" stroke="#6A6C60" stroke-linecap="round" stroke-linejoin="round"/>
</svg>
