<svg width="36" height="37" viewBox="0 0 36 37" fill="none" xmlns="http://www.w3.org/2000/svg">
<rect y="0.5" width="36" height="36" rx="18" fill="#FFF1ED"/>
<path d="M20.1073 16.3916L15.8906 20.6083C15.349 20.0666 15.0156 19.3249 15.0156 18.4999C15.0156 16.8499 16.349 15.5166 17.999 15.5166C18.824 15.5166 19.5656 15.8499 20.1073 16.3916Z" stroke="#FE7048" stroke-width="1.5" stroke-linecap="round" stroke-linejoin="round"/>
<path d="M22.8518 13.3084C21.3935 12.2084 19.7268 11.6084 18.0018 11.6084C15.0602 11.6084 12.3185 13.3417 10.4102 16.3417C9.66016 17.5167 9.66016 19.4917 10.4102 20.6667C11.0685 21.7001 11.8352 22.5917 12.6685 23.3084" stroke="#FE7048" stroke-width="1.5" stroke-linecap="round" stroke-linejoin="round"/>
<path d="M15.0156 24.7751C15.9656 25.1751 16.974 25.3917 17.999 25.3917C20.9406 25.3917 23.6823 23.6584 25.5906 20.6584C26.3406 19.4834 26.3406 17.5084 25.5906 16.3334C25.3156 15.9001 25.0156 15.4917 24.7073 15.1084" stroke="#FE7048" stroke-width="1.5" stroke-linecap="round" stroke-linejoin="round"/>
<path d="M20.9242 19.083C20.7076 20.258 19.7492 21.2163 18.5742 21.433" stroke="#FE7048" stroke-width="1.5" stroke-linecap="round" stroke-linejoin="round"/>
<path d="M15.893 20.6084L9.66797 26.8334" stroke="#FE7048" stroke-width="1.5" stroke-linecap="round" stroke-linejoin="round"/>
<path d="M26.3344 10.167L20.1094 16.392" stroke="#FE7048" stroke-width="1.5" stroke-linecap="round" stroke-linejoin="round"/>
</svg>
