<svg width="20" height="21" viewBox="0 0 20 21" fill="none" xmlns="http://www.w3.org/2000/svg">
<path d="M9.16602 2.16602H7.49935C3.33268 2.16602 1.66602 3.83268 1.66602 7.99935V12.9993C1.66602 17.166 3.33268 18.8327 7.49935 18.8327H12.4993C16.666 18.8327 18.3327 17.166 18.3327 12.9993V11.3327" stroke="#3045FB" stroke-width="1.5" stroke-linecap="round" stroke-linejoin="round"/>
<path d="M13.3675 3.01639L6.80088 9.58306C6.55088 9.83306 6.30088 10.3247 6.25088 10.6831L5.89254 13.1914C5.75921 14.0997 6.40088 14.7331 7.30921 14.6081L9.81754 14.2497C10.1675 14.1997 10.6592 13.9497 10.9175 13.6997L17.4842 7.13306C18.6175 5.99972 19.1509 4.68306 17.4842 3.01639C15.8175 1.34972 14.5009 1.88306 13.3675 3.01639Z" stroke="#3045FB" stroke-width="1.5" stroke-miterlimit="10" stroke-linecap="round" stroke-linejoin="round"/>
<path d="M12.4258 3.95898C12.9841 5.95065 14.5424 7.50898 16.5424 8.07565" stroke="#3045FB" stroke-width="1.5" stroke-miterlimit="10" stroke-linecap="round" stroke-linejoin="round"/>
</svg>
