<svg width="49" height="48" viewBox="0 0 49 48" fill="none" xmlns="http://www.w3.org/2000/svg">
<rect x="0.5" width="48" height="48" rx="24" fill="#EAECFE"/>
<path fill-rule="evenodd" clip-rule="evenodd" d="M28.7036 12.8001C28.4472 12.5437 28.1246 12.555 27.9477 12.5785C27.7804 12.6007 27.5801 12.6577 27.3892 12.712L27.2422 12.7538L27.1226 12.6784C26.9611 12.5762 26.7873 12.4665 26.6329 12.3994C26.4586 12.3237 26.1645 12.2375 25.8554 12.3999C25.5523 12.5592 25.4524 12.8445 25.4113 13.0259C25.3737 13.1911 25.3576 13.3976 25.3424 13.594L25.3308 13.7428L25.3298 13.7552L25.1996 13.8623C25.0441 13.9903 24.8828 14.123 24.7683 14.2482C24.647 14.3807 24.4601 14.6298 24.5076 14.9766C24.5567 15.3352 24.8164 15.5211 24.9787 15.6111C25.1257 15.6926 25.319 15.764 25.4993 15.8305L25.6263 15.8774L25.6732 16.0044C25.7397 16.1847 25.8111 16.3781 25.8926 16.5251C25.9826 16.6873 26.1685 16.947 26.5272 16.9961C26.8739 17.0436 27.123 16.8567 27.2555 16.7354C27.3807 16.621 27.5135 16.4596 27.6413 16.3041L27.7486 16.1739L27.7609 16.1729L27.9097 16.1613C28.1061 16.1461 28.3126 16.13 28.4777 16.0925C28.6593 16.0512 28.9445 15.9515 29.1038 15.6483C29.2663 15.3393 29.1801 15.0451 29.1043 14.8709C29.0371 14.7164 28.9275 14.5427 28.8254 14.3811L28.7499 14.2615L28.7917 14.1145C28.846 13.9236 28.9031 13.7233 28.9253 13.556C28.9487 13.3791 28.96 13.0565 28.7036 12.8001ZM27.6542 13.8496L27.5632 13.8754L27.5391 13.8825C27.4512 13.9086 27.2679 13.9631 27.0769 13.9369C26.8814 13.9101 26.7196 13.8051 26.6445 13.7565L26.6246 13.7436L26.5068 13.6692L26.4939 13.8336L26.4922 13.8587C26.486 13.9512 26.4734 14.1378 26.3844 14.3073C26.2964 14.4746 26.1514 14.5914 26.0781 14.6505L26.0579 14.6668L25.9521 14.754L26.0424 14.7874L26.0647 14.7954C26.1484 14.825 26.3329 14.8904 26.4732 15.0306C26.6134 15.1708 26.6787 15.3554 26.7084 15.439L26.7163 15.4612L26.7497 15.5516L26.8369 15.4457L26.8531 15.4256C26.9123 15.3523 27.0291 15.2073 27.1964 15.1194C27.3659 15.0303 27.5526 15.0178 27.6451 15.0116L27.6702 15.0098L27.8345 14.997L27.7601 14.8792L27.7473 14.8591C27.6986 14.7842 27.5936 14.6223 27.5668 14.4268C27.5407 14.2358 27.5951 14.0525 27.6213 13.9645L27.6283 13.9405L27.6542 13.8496Z" fill="#274FED"/>
<path d="M22.6739 13.6985C22.9261 13.2861 22.7961 12.7476 22.3838 12.4955C21.9715 12.2435 21.433 12.3734 21.1809 12.7857C20.5763 13.7746 20.7278 15.049 21.5474 15.8686L21.6616 15.9828C21.8923 16.2134 21.9773 16.5522 21.8829 16.8643C21.7431 17.3269 22.0047 17.8153 22.4673 17.9551C22.9299 18.0949 23.4183 17.8333 23.558 17.3707C23.8391 16.441 23.5858 15.4321 22.8991 14.7453L22.7849 14.6312C22.537 14.3832 22.4911 13.9977 22.6739 13.6985Z" fill="#274FED"/>
<path d="M19.4667 14.5973C19.2223 14.353 18.8261 14.353 18.5817 14.5973C18.3373 14.8417 18.3373 15.2379 18.5817 15.4823C18.8261 15.7267 19.2223 15.7267 19.4667 15.4823C19.7111 15.2379 19.7111 14.8417 19.4667 14.5973Z" fill="#274FED"/>
<path d="M31.8221 16.538C31.9169 16.0641 31.6096 15.6032 31.1357 15.5084C30.6618 15.4136 30.2008 15.7209 30.1061 16.1948L29.9381 17.0347C29.83 17.5749 29.4408 18.0157 28.9183 18.1899C27.7999 18.5627 26.967 19.5061 26.7359 20.6621L26.5679 21.502C26.4732 21.9758 26.7805 22.4369 27.2543 22.5316C27.7282 22.6263 28.1891 22.319 28.284 21.8451L28.452 21.0053C28.5599 20.4651 28.9491 20.0243 29.4716 19.8501C30.59 19.4773 31.4229 18.5339 31.6541 17.3779L31.8221 16.538Z" fill="#274FED"/>
<path fill-rule="evenodd" clip-rule="evenodd" d="M36.7777 20.3158C37.0763 20.9621 36.8748 21.6957 36.3299 22.2407C36.0138 22.5567 35.5903 22.6999 35.2131 22.7669C34.8273 22.8355 34.4194 22.8369 34.0622 22.814C33.7014 22.791 33.3706 22.7416 33.1313 22.6987C33.0112 22.677 32.9126 22.6568 32.843 22.6416L32.789 22.6296L32.7611 22.6232L32.7382 22.6177L32.7314 22.6161L32.7292 22.6156C32.7292 22.6156 32.7279 22.6153 32.868 22.0491L32.7279 22.6153C32.5179 22.5632 32.3537 22.399 32.3017 22.189L32.301 22.1857L32.2994 22.1789L32.2939 22.156C32.2893 22.1365 32.283 22.1088 32.2755 22.0741C32.2604 22.0045 32.2401 21.9059 32.2185 21.7858C32.1755 21.5465 32.1262 21.2157 32.1031 20.8549C32.0803 20.4976 32.0816 20.0898 32.1502 19.704C32.2172 19.3268 32.3604 18.9033 32.6764 18.5873C33.2214 18.0423 33.9551 17.8409 34.6013 18.1394C35.0914 18.3658 35.4103 18.824 35.5305 19.3867C36.093 19.5068 36.5513 19.8256 36.7777 20.3158ZM33.3623 21.5548C33.5701 21.5914 33.8446 21.631 34.1368 21.6497C34.4439 21.6695 34.7496 21.6644 35.0088 21.6183C35.2767 21.5707 35.4299 21.4907 35.5048 21.4157C35.7881 21.1325 35.7664 20.9085 35.7186 20.805C35.6666 20.6926 35.4804 20.4984 35.0023 20.4997C34.847 20.5001 34.698 20.4386 34.5883 20.3288C34.4785 20.2191 34.417 20.0701 34.4175 19.9148C34.4187 19.4367 34.2245 19.2504 34.112 19.1985C34.0085 19.1507 33.7845 19.129 33.5014 19.4123C33.4264 19.4872 33.3465 19.6404 33.2989 19.9083C33.2527 20.1675 33.2478 20.4731 33.2674 20.7804C33.286 21.0725 33.3257 21.3471 33.3623 21.5548Z" fill="#274FED"/>
<path d="M34.218 26.0179C34.5626 25.7122 35.0533 25.6347 35.4753 25.8193L35.8154 25.9679C36.2581 26.1616 36.774 25.9595 36.9677 25.5168C37.1612 25.074 36.9593 24.5581 36.5165 24.3645L36.1764 24.2158C35.1295 23.758 33.9118 23.9503 33.0569 24.7085C32.6763 25.0459 32.1226 25.102 31.6821 24.8477L31.4338 24.7043C31.0152 24.4627 30.4801 24.6061 30.2385 25.0246C29.9968 25.443 30.1402 25.9782 30.5588 26.2198L30.8071 26.3632C31.8999 26.9941 33.2739 26.8551 34.218 26.0179Z" fill="#274FED"/>
<path d="M32.734 27.8654C32.9784 27.6211 33.3746 27.6211 33.619 27.8654C33.8635 28.1098 33.8635 28.506 33.619 28.7504C33.3746 28.9948 32.9784 28.9948 32.734 28.7504C32.4897 28.506 32.4897 28.1098 32.734 27.8654Z" fill="#274FED"/>
<path d="M25.5683 18.3498C25.3238 18.1054 24.9276 18.1054 24.6832 18.3498C24.4389 18.5942 24.4389 18.9904 24.6832 19.2348C24.9276 19.4791 25.3238 19.4791 25.5683 19.2348C25.8126 18.9904 25.8126 18.5942 25.5683 18.3498Z" fill="#274FED"/>
<path d="M30.5153 21.8498C30.7597 21.6054 31.1559 21.6054 31.4003 21.8498C31.6446 22.0942 31.6446 22.4904 31.4003 22.7347C31.1559 22.9791 30.7597 22.9791 30.5153 22.7347C30.271 22.4904 30.271 22.0942 30.5153 21.8498Z" fill="#274FED"/>
<path fill-rule="evenodd" clip-rule="evenodd" d="M21.746 18.0321C22.4301 18.5392 23.2171 19.3263 24.1722 20.2814L28.2178 24.327C29.173 25.2822 29.96 26.0692 30.4671 26.7532C30.9911 27.46 31.3603 28.2454 31.1468 29.1499C30.9333 30.0544 30.2518 30.5918 29.4671 30.9896C28.7076 31.3746 27.6516 31.7266 26.3703 32.1536L20.3149 34.1721C18.7634 34.6892 17.5043 35.109 16.528 35.2827C15.5429 35.458 14.5432 35.4402 13.8011 34.6981C13.059 33.956 13.0413 32.9563 13.2166 31.9711C13.3902 30.9949 13.81 29.7358 14.3272 28.1841L16.3456 22.129C16.7727 20.8476 17.1246 19.7917 17.5097 19.0322C17.9074 18.2474 18.4448 17.5659 19.3493 17.3524C20.2539 17.1389 21.0393 17.5081 21.746 18.0321ZM20.7038 19.4378C20.6834 19.4227 20.6634 19.4082 20.6438 19.3941C20.6304 19.4667 20.6161 19.5448 20.6011 19.6279C20.502 20.1782 20.3721 20.9476 20.2492 21.823C20.0012 23.591 19.7914 25.7282 19.8988 27.366C19.9638 28.3575 20.1761 29.6401 20.3788 30.6984C20.4792 31.2225 20.5754 31.6824 20.6465 32.011C20.6617 32.0813 20.6757 32.1454 20.6884 32.203L23.7622 31.1783C23.6814 30.9385 23.5846 30.6297 23.4879 30.2703C23.2557 29.4072 23.0156 28.2201 23.0156 26.981C23.0156 25.6798 23.2547 24.4929 23.4891 23.6388C23.6068 23.2095 23.725 22.8585 23.8149 22.6121C23.8358 22.5547 23.8553 22.5029 23.8729 22.457L22.9865 21.5706C21.9666 20.5507 21.2709 19.8583 20.7038 19.4378ZM17.9826 22.7519C18.2264 22.0205 18.4292 21.4142 18.614 20.9121C18.5813 21.1262 18.5485 21.3494 18.5162 21.5799C18.2652 23.3686 18.0327 25.6541 18.1525 27.4804C18.225 28.5856 18.4549 29.9564 18.6601 31.0277C18.7636 31.5683 18.8628 32.0421 18.9361 32.381C18.9699 32.5376 18.9984 32.6657 19.0192 32.7584C17.8049 33.1594 16.9103 33.4372 16.2215 33.5597C15.3806 33.7094 15.148 33.5701 15.0386 33.4606C14.9292 33.3513 14.7899 33.1186 14.9395 32.2777C15.088 31.4431 15.4644 30.3065 16.0116 28.665L17.9826 22.7519ZM25.7474 30.5165L25.4224 30.6249C25.3513 30.4142 25.2646 30.1384 25.1778 29.8157C25.1149 29.5822 25.0529 29.3269 24.9966 29.0562C24.8649 28.4217 24.7656 27.7027 24.7656 26.981C24.7656 25.8841 24.9688 24.8596 25.1767 24.1019C25.2021 24.009 25.2276 23.9206 25.2526 23.8368L26.9286 25.5128C27.9485 26.5326 28.641 27.2284 29.0614 27.7955C29.4742 28.3523 29.4797 28.595 29.4436 28.7479C29.4076 28.9006 29.2941 29.1153 28.6758 29.4286C28.0461 29.7479 27.1157 30.0605 25.7474 30.5165Z" fill="#274FED"/>
</svg>
