<svg width="39" height="11" viewBox="0 0 39 11" fill="none" xmlns="http://www.w3.org/2000/svg">
<path d="M38.4179 2.92356C38.4179 2.92356 37.0927 0.874327 37.0791 0.847004C36.2867 -0.177611 34.5107 -0.218596 33.5407 0.573773C32.2019 -0.437181 30.3576 0.136604 29.2783 1.3115C28.2537 -0.491827 26.1225 -0.191273 24.6744 1.1339C23.9503 -0.245919 21.3683 -0.327888 20.3437 1.03827C18.595 -0.614781 15.3162 -0.218596 13.7042 1.47544C12.7069 -0.245919 10.6167 -0.437181 9.10023 1.0246C8.37617 -0.34155 6.01273 -0.122965 5.00177 1.0246C3.52632 -1.21589 -0.476507 0.751374 0.0562929 3.34707L0.930632 4.42633C0.616416 5.79248 0.0153083 7.58214 0.998939 8.75704C1.0126 8.7707 2.02355 10.0276 2.0782 10.0959C3.13014 11.2708 4.97445 10.9019 5.68485 9.54941C6.60017 11.1615 9.10023 11.2571 9.90626 9.50842C10.8216 11.1068 13.1031 11.2025 14.3326 9.86362C16.1359 11.4757 19.4557 11.0385 21.0404 9.27618C22.0787 11.0795 24.5378 11.4484 25.4394 9.31716C26.3957 10.9292 28.4313 11.2844 29.8248 9.97291C30.8221 11.0795 32.4478 11.0522 33.5271 10.0412C35.2074 11.9812 38.7048 10.0002 38.2813 7.58214L37.3933 6.48922C37.4479 6.1067 38.4179 2.92356 38.4179 2.92356Z" fill="#FE7048"/>
<path d="M35.8895 7.19918C36.0671 7.19918 36.2311 7.07622 36.3677 6.83031L36.4906 6.89862C36.477 9.04348 32.4741 9.69924 32.925 6.96693C32.0916 9.02982 29.6325 9.54896 28.8675 7.21284C28.5942 8.51068 26.7499 9.30305 25.7253 8.34674C24.5914 7.14453 25.8346 4.9177 25.8346 3.4969C25.5614 1.88484 23.3209 4.42588 23.6214 5.39585C23.6761 6.31118 24.1406 7.62268 23.3892 8.33308C22.8154 8.93419 21.9138 8.90687 21.3263 8.30576C20.5066 7.49973 20.9711 6.09259 21.2034 5.05431C21.4356 4.31659 22.0504 1.84385 20.5749 2.88213C22.146 7.28114 15.9437 11.243 13.2523 7.21284C12.8562 9.12545 9.44077 9.46699 9.60471 7.03524C9.64569 6.32484 9.78231 5.64176 9.95991 4.93136C10.0829 4.43954 10.4927 3.26465 9.94624 2.89579C9.55006 2.62256 9.01726 3.30564 8.826 3.5652C8.4708 4.04336 8.26587 4.61714 8.21123 5.21825C8.15658 5.86034 8.3615 6.46145 8.3615 7.08988C8.37517 7.85493 7.95166 8.55167 7.17295 8.72927C6.6948 8.83856 6.12101 8.70194 5.76581 8.34674C5.30132 7.88225 5.39695 7.19918 5.49258 6.61173C5.61553 5.73739 5.86144 4.87671 5.97073 3.98871C6.02538 3.60619 6.12101 2.71819 5.47892 2.90945C4.7412 3.12804 4.26304 3.92041 4.12643 4.63081C3.96249 5.46416 4.26304 6.28385 4.2084 7.11721C4.18107 7.52705 4.04446 7.9369 3.77123 8.26478C2.81492 9.39868 1.16187 8.45604 1.27116 7.03524C1.0799 6.28385 3.10181 1.434 0.943287 2.95044L0.847656 2.88213C0.874979 0.518681 5.00076 -0.0277809 4.54993 2.86847C5.47892 0.832896 8.94895 -0.341996 8.56643 2.95044C9.2495 1.69357 11.2441 -0.0277808 12.5146 1.3657C13.6349 2.11708 11.0665 8.40139 13.1157 6.91228C12.296 4.80841 13.4299 2.21271 15.4655 1.24274C17.1049 0.436712 19.7142 0.750927 20.4656 2.59524C20.8618 0.24545 24.728 0.286435 24.1406 2.99142C24.2226 2.63622 24.769 2.18539 25.0286 1.93948C25.7663 1.24274 26.8866 0.505019 27.9385 1.0788C28.5123 1.39302 28.4986 1.92582 28.485 2.4996C28.4303 3.68816 28.1161 4.84939 27.9931 6.03794C27.9385 6.6937 27.9931 7.51339 28.7719 6.85764C27.515 2.48594 32.4605 -1.51689 33.772 2.45862C33.9223 1.92582 33.7037 1.32471 34.2911 1.05148C35.0288 0.696281 36.3403 0.750927 36.5862 1.69357C36.2037 2.70453 34.8376 6.58441 35.8895 7.19918ZM17.8699 5.96964C18.1022 4.90404 18.1842 3.48324 17.5557 2.52693C17.1595 1.93948 16.4628 2.17173 16.1213 2.70453C15.6568 3.45591 15.5748 4.52151 15.6158 5.39585C15.6431 5.91499 15.7524 6.47511 15.9983 6.93961C16.1896 7.32213 16.6404 7.62268 17.0639 7.37678C17.5147 7.10354 17.7606 6.46145 17.8699 5.96964ZM33.5397 3.7428C33.5671 3.66084 33.5807 3.5652 33.5944 3.48324C32.9386 1.74822 31.6681 2.41764 31.2583 3.87942C31.0397 4.67179 30.903 5.55979 31.2446 6.35216C31.5998 7.15819 32.2555 6.61173 32.6107 6.10625C33.1026 5.42317 33.3348 4.5625 33.5397 3.7428Z" fill="white"/>
</svg>
