<svg width="36" height="37" viewBox="0 0 36 37" fill="none" xmlns="http://www.w3.org/2000/svg">
<rect y="0.5" width="36" height="36" rx="18" fill="#8E94F1" fill-opacity="0.1"/>
<path d="M17.7513 12.4998C19.1 12.4998 19.9301 13.4689 19.997 14.8287L20.0013 15.0083V17.1238L22.2205 17.5267C22.3073 17.5425 22.3935 17.5618 22.4787 17.5846C24.153 18.0319 25.1711 19.7079 24.8224 21.3838L24.7797 21.5633L23.7316 25.4864C23.5135 26.3026 22.8587 26.923 22.0427 27.1029L21.8774 27.1329L19.4592 27.4799C18.5346 27.6126 17.631 27.1603 17.1789 26.3564L17.0995 26.2016L17.0704 26.1391C16.8356 25.6343 16.4832 25.1946 16.0441 24.8562L15.8507 24.7174L13.9669 23.4616L13.873 23.4032L13.7757 23.3508L11.4127 22.1754C11.1633 22.0513 11.0032 21.7991 10.997 21.5205C10.9724 20.4119 11.4625 19.5566 12.4159 19.0799C13.1178 18.7289 14.051 18.7488 15.2421 19.0965L15.5013 19.176V15.0083C15.5013 13.555 16.344 12.4998 17.7513 12.4998ZM17.7513 13.9998C17.2914 13.9998 17.0389 14.2747 17.0052 14.8662L17.0013 15.0083V20.2523C17.0013 20.7863 16.4591 21.1492 15.9654 20.9457C14.5048 20.3434 13.524 20.2029 13.0868 20.4215C12.8327 20.5485 12.6665 20.7124 12.577 20.9405L12.5385 21.06L14.4437 22.0078L14.6246 22.1051L14.799 22.2135L16.6827 23.4693C17.3654 23.9245 17.9235 24.5409 18.3086 25.2622L18.4305 25.5065L18.4596 25.569C18.5836 25.8356 18.8499 26.002 19.1375 26.0027L19.2461 25.9951L21.6644 25.6481C21.9245 25.6108 22.1432 25.4407 22.2458 25.2044L22.2824 25.0993L23.3306 21.1761C23.58 20.2424 23.0253 19.2832 22.0916 19.0337L22.0224 19.0167L19.1173 18.4878C18.7963 18.4295 18.5542 18.172 18.509 17.8568L18.5013 17.7498V15.0083C18.5013 14.3187 18.2467 13.9998 17.7513 13.9998ZM17.7502 9C20.926 9 23.5006 11.5745 23.5006 14.7504C23.5006 15.4532 23.3745 16.1265 23.1438 16.749L22.9996 16.6964C22.855 16.6455 22.6501 16.58 22.3922 16.5207C22.1516 16.4654 21.9091 16.4281 21.6649 16.4088C21.881 15.8993 22.0006 15.3388 22.0006 14.7504C22.0006 12.403 20.0976 10.5 17.7502 10.5C15.4027 10.5 13.4998 12.403 13.4998 14.7504C13.4998 15.7946 13.8763 16.7509 14.501 17.4908C14.1775 17.5187 13.9028 17.5599 13.6769 17.6143C13.3259 17.6988 13.0889 17.784 12.9247 17.8767C12.3395 16.9785 11.9998 15.9041 11.9998 14.7504C11.9998 11.5745 14.5743 9 17.7502 9Z" fill="#8E94F1"/>
</svg>
