<svg width="51" height="16" viewBox="0 0 51 16" fill="none" xmlns="http://www.w3.org/2000/svg">
<path d="M1.5 8L13.5 8" stroke="#C6C7C3" stroke-width="2" stroke-linecap="round" stroke-linejoin="round" stroke-dasharray="6 6"/>
<path d="M24.1667 13.9997L22.2917 12.6605C20.5398 11.4091 19.5 9.38861 19.5 7.23554V3.83589C19.5 3.53824 19.6973 3.27665 19.9835 3.19488L23.9835 2.05202C24.1032 2.01782 24.2301 2.01782 24.3498 2.05202L28.3498 3.19488C28.636 3.27665 28.8333 3.53824 28.8333 3.83589V4.99969M30.1667 9.99968V8.66634C30.1667 7.93001 29.5697 7.33301 28.8333 7.33301C28.0969 7.33301 27.5 7.93001 27.5 8.66634V9.99968M30.1667 9.99968H27.5M30.1667 9.99968C30.9031 9.99968 31.5 10.5967 31.5 11.333V12.6663C31.5 13.4027 30.9031 13.9997 30.1667 13.9997H27.5C26.7636 13.9997 26.1667 13.4027 26.1667 12.6663V11.333C26.1667 10.5967 26.7636 9.99968 27.5 9.99968" stroke="#C6C7C3" stroke-width="1.2" stroke-linecap="round" stroke-linejoin="round"/>
<path d="M37.5 8L49.5 8" stroke="#C6C7C3" stroke-width="2" stroke-linecap="round" stroke-linejoin="round" stroke-dasharray="6 6"/>
</svg>
