<svg width="36" height="37" viewBox="0 0 36 37" fill="none" xmlns="http://www.w3.org/2000/svg">
<rect y="0.5" width="36" height="36" rx="18" fill="#8FDC97" fill-opacity="0.1"/>
<path d="M16 27.5L13.1876 25.4912C10.5597 23.6141 9 20.5834 9 17.3538V12.2543C9 11.8078 9.29598 11.4155 9.72528 11.2928L15.7253 9.57852C15.9048 9.52721 16.0952 9.52721 16.2747 9.57852L22.2747 11.2928C22.704 11.4155 23 11.8078 23 12.2543V14M25 21.5V19.5C25 18.3955 24.1046 17.5 23 17.5C21.8954 17.5 21 18.3955 21 19.5V21.5M25 21.5H21M25 21.5C26.1046 21.5 27 22.3955 27 23.5V25.5C27 26.6046 26.1046 27.5 25 27.5H21C19.8954 27.5 19 26.6046 19 25.5V23.5C19 22.3955 19.8954 21.5 21 21.5" stroke="#669C6B" stroke-width="2" stroke-linecap="round" stroke-linejoin="round"/>
</svg>
