<svg width="14" height="14" viewBox="0 0 14 14" fill="none" xmlns="http://www.w3.org/2000/svg">
<rect width="14" height="14" rx="7" fill="white"/>
<path d="M2.83203 7.25391H9.91536" stroke="#FE7048" stroke-width="0.8" stroke-miterlimit="10" stroke-linecap="round" stroke-linejoin="round"/>
<path d="M9.91536 6.28366V9.26283C9.90286 10.4503 9.57785 10.7503 8.34035 10.7503H4.40704C3.14871 10.7503 2.83203 10.4378 2.83203 9.19616V6.28366C2.83203 5.15866 3.09453 4.79616 4.08203 4.73783C4.18203 4.73366 4.29038 4.72949 4.40704 4.72949H8.34035C9.59869 4.72949 9.91536 5.04199 9.91536 6.28366Z" stroke="#FE7048" stroke-width="0.8" stroke-linecap="round" stroke-linejoin="round"/>
<path d="M11.1654 4.80417V7.71667C11.1654 8.84167 10.9029 9.20417 9.91537 9.2625V6.28333C9.91537 5.04167 9.59869 4.72917 8.34035 4.72917H4.40704C4.29038 4.72917 4.18203 4.73333 4.08203 4.7375C4.09453 3.55 4.41954 3.25 5.65704 3.25H9.59035C10.8487 3.25 11.1654 3.5625 11.1654 4.80417Z" stroke="#FE7048" stroke-width="0.8" stroke-linecap="round" stroke-linejoin="round"/>
<path d="M4.1875 9.4209H4.90415" stroke="#FE7048" stroke-width="0.8" stroke-miterlimit="10" stroke-linecap="round" stroke-linejoin="round"/>
<path d="M5.79688 9.4209H7.23021" stroke="#FE7048" stroke-width="0.8" stroke-miterlimit="10" stroke-linecap="round" stroke-linejoin="round"/>
</svg>
