<svg width="20" height="20" viewBox="0 0 20 20" fill="none" xmlns="http://www.w3.org/2000/svg">
<path d="M17.4242 9.26658C17.4242 13.3416 14.4659 17.1582 10.4242 18.2749C10.1492 18.3499 9.84921 18.3499 9.57421 18.2749C5.53255 17.1582 2.57422 13.3416 2.57422 9.26658V5.60824C2.57422 4.92491 3.0909 4.14991 3.73256 3.89158L8.37421 1.9916C9.41588 1.5666 10.5909 1.5666 11.6325 1.9916L16.2742 3.89158C16.9076 4.14991 17.4326 4.92491 17.4326 5.60824L17.4242 9.26658Z" stroke="#8E94F1" stroke-width="1.5" stroke-linecap="round" stroke-linejoin="round"/>
<path d="M9.9987 10.4163C10.9192 10.4163 11.6654 9.67015 11.6654 8.74967C11.6654 7.8292 10.9192 7.08301 9.9987 7.08301C9.07822 7.08301 8.33203 7.8292 8.33203 8.74967C8.33203 9.67015 9.07822 10.4163 9.9987 10.4163Z" stroke="#8E94F1" stroke-width="1.5" stroke-miterlimit="10" stroke-linecap="round" stroke-linejoin="round"/>
<path d="M10 10.416V12.916" stroke="#8E94F1" stroke-width="1.5" stroke-miterlimit="10" stroke-linecap="round" stroke-linejoin="round"/>
</svg>
